<svg xmlns="http://www.w3.org/2000/svg" viewBox="0 0 24 24">
  <path d="M17.75 3C19.5449 3 21 4.45507 21 6.25V7H3V6.25C3 4.45507 4.45507 3 6.25 3H17.75Z M21 8.5V12.0218C19.9897 11.375 18.7886 11 17.5 11C13.9101 11 11 13.9101 11 17.5C11 18.7886 11.375 19.9897 12.0218 21H6.25C4.45507 21 3 19.5449 3 17.75V8.5H21Z M23 17.5C23 14.4624 20.5376 12 17.5 12C14.4624 12 12 14.4624 12 17.5C12 20.5376 14.4624 23 17.5 23C20.5376 23 23 20.5376 23 17.5Z M15.5 14.5 V20.5 H16.5 V14.5 H15.5Z M18.5 14.5 V20.5 H19.5 V14.5 H18.5Z" fill="currentColor"/>
</svg>
